<?xml version="1.0" encoding="utf-8"?>
<!-- Generator: Adobe Illustrator 24.0.2, SVG Export Plug-In . SVG Version: 6.00 Build 0)  -->
<svg version="1.1" id="Capa_1" xmlns="http://www.w3.org/2000/svg" xmlns:xlink="http://www.w3.org/1999/xlink" x="0px" y="0px"
	 viewBox="0 0 16 16" style="enable-background:new 0 0 16 16;" xml:space="preserve">
<style type="text/css">
	.st0{fill:url(#SVGID_1_);}
	.st1{fill:#FFFFFF;}
</style>
<g>
	<linearGradient id="SVGID_1_" gradientUnits="userSpaceOnUse" x1="0" y1="8" x2="16" y2="8">
		<stop  offset="0" style="stop-color:#A38013"/>
		<stop  offset="1" style="stop-color:#514016"/>
	</linearGradient>
	<rect class="st0" width="16" height="16"/>
</g>
<path class="st1" d="M9.1,14.5L9,14.4L9.1,14.5l0-5.9h0l6.3-3.6L6.9,0L0.6,3.6l0,7.4L9.1,16l6.3-3.6l-1.3-0.8L9.1,14.5z M13.4,4.9
	L9.2,7.4L8,6.7v0l4.3-2.5L13.4,4.9z M1.6,10.1L1.6,10.1l0-5.9l5.3-3.1L8,1.8L2.8,4.9l0,5.9L1.6,10.1z M3.7,11.3l0-5.9L9,2.4l2.3,1.3
	L6,6.7l0,0L6,10L3.7,11.3z"/>
</svg>
